<?xml version="1.0" encoding="UTF-8" standalone="no"?>
<svg xmlns="http://www.w3.org/2000/svg" width="150" height="110" viewBox="0 0 150 110">
  <!-- Top ESA Logo -->
  <rect x="10" y="10" width="130" height="40" rx="5" ry="5" fill="#fff" stroke="#333" stroke-width="1" />
  <text x="75" y="25" font-family="Arial, sans-serif" font-weight="bold" font-size="10" text-anchor="middle" fill="#333">Electrical Contractor</text>
  <text x="75" y="40" font-family="Arial, sans-serif" font-weight="bold" font-size="10" text-anchor="middle" fill="#333">Registration Agency</text>

  <!-- Blue E Symbol -->
  <path d="M30,60 L50,55 L55,70 L30,75 Z" fill="#1a5a99" />
  <path d="M40,55 L60,50 L65,65 L45,70 Z" fill="#1a5a99" />

  <!-- Bottom ESA Logo -->
  <rect x="10" y="60" width="130" height="40" rx="5" ry="5" fill="#fff" stroke="#333" stroke-width="1" />
  <text x="75" y="75" font-family="Arial, sans-serif" font-weight="bold" font-size="10" text-anchor="middle" fill="#333">Office of the</text>
  <text x="75" y="90" font-family="Arial, sans-serif" font-weight="bold" font-size="10" text-anchor="middle" fill="#333">Electrical Safety</text>
  <text x="75" y="105" font-family="Arial, sans-serif" font-weight="bold" font-size="10" text-anchor="middle" fill="#333">Authority</text>

  <!-- Flame Symbol -->
  <path d="M120,70 C125,80 135,85 125,95 C115,85 105,95 115,105 C105,90 95,85 120,70" fill="#f7941d" />
</svg>
