<?xml version="1.0" encoding="UTF-8" standalone="no"?>
<svg xmlns="http://www.w3.org/2000/svg" width="500" height="300" viewBox="0 0 500 300">
  <!-- City Backdrop -->
  <rect x="0" y="0" width="500" height="300" fill="#a99566" />

  <!-- Buildings -->
  <rect x="50" y="50" width="30" height="250" fill="#555" />
  <rect x="90" y="80" width="40" height="220" fill="#666" />
  <rect x="140" y="30" width="50" height="270" fill="#444" />
  <rect x="200" y="100" width="60" height="200" fill="#555" />
  <rect x="270" y="70" width="70" height="230" fill="#666" />
  <rect x="350" y="120" width="40" height="180" fill="#444" />
  <rect x="400" y="50" width="60" height="250" fill="#555" />

  <!-- Windows on Buildings -->
  <rect x="55" y="70" width="5" height="10" fill="#ffe" />
  <rect x="70" y="70" width="5" height="10" fill="#ffe" />
  <rect x="55" y="90" width="5" height="10" fill="#ffe" />
  <rect x="70" y="90" width="5" height="10" fill="#ffe" />

  <rect x="95" y="100" width="7" height="12" fill="#ffe" />
  <rect x="115" y="100" width="7" height="12" fill="#ffe" />
  <rect x="95" y="130" width="7" height="12" fill="#ffe" />
  <rect x="115" y="130" width="7" height="12" fill="#ffe" />

  <!-- Office Workers -->
  <!-- Man -->
  <circle cx="180" cy="180" r="20" fill="#e0d0c0" /> <!-- Head -->
  <rect x="172" y="200" width="16" height="50" fill="#445588" /> <!-- Body -->
  <rect x="172" y="220" width="30" height="5" fill="#445588" /> <!-- Right Arm -->
  <rect x="155" y="220" width="17" height="5" fill="#445588" /> <!-- Left Arm -->
  <rect x="172" y="250" width="7" height="20" fill="#333" /> <!-- Right Leg -->
  <rect x="181" y="250" width="7" height="20" fill="#333" /> <!-- Left Leg -->
  <path d="M173,175 L177,175 L175,180 Z" fill="#333" /> <!-- Nose -->
  <path d="M168,170 L172,170 L172,172 L168,172 Z" fill="#333" /> <!-- Left Eye -->
  <path d="M178,170 L182,170 L182,172 L178,172 Z" fill="#333" /> <!-- Right Eye -->
  <path d="M168,185 L182,185 L182,187 L168,187 Z" fill="#333" /> <!-- Mouth -->
  <path d="M165,160 L195,160 L180,150 Z" fill="#553311" /> <!-- Hair -->

  <!-- Woman -->
  <circle cx="240" cy="180" r="20" fill="#e0d0c0" /> <!-- Head -->
  <rect x="232" y="200" width="16" height="50" fill="#a2c698" /> <!-- Body -->
  <rect x="232" y="220" width="30" height="5" fill="#a2c698" /> <!-- Right Arm -->
  <rect x="215" y="220" width="17" height="5" fill="#a2c698" /> <!-- Left Arm -->
  <rect x="232" y="250" width="7" height="20" fill="#333" /> <!-- Right Leg -->
  <rect x="241" y="250" width="7" height="20" fill="#333" /> <!-- Left Leg -->
  <path d="M233,175 L237,175 L235,180 Z" fill="#333" /> <!-- Nose -->
  <path d="M228,170 L232,170 L232,172 L228,172 Z" fill="#333" /> <!-- Left Eye -->
  <path d="M238,170 L242,170 L242,172 L238,172 Z" fill="#333" /> <!-- Right Eye -->
  <path d="M228,185 L242,185 L242,187 L228,187 Z" fill="#333" /> <!-- Mouth -->
  <path d="M220,160 C220,150 260,150 260,160 L260,170 C260,180 220,180 220,170 Z" fill="#ffdd88" /> <!-- Hair -->

  <!-- Document -->
  <rect x="190" y="220" width="50" height="40" fill="#fff" stroke="#333" stroke-width="1" />
  <path d="M200,230 L230,230" stroke="#333" stroke-width="1" />
  <path d="M200,240" stroke="#333" stroke-width="1" />
  <path d="M200,240 L230,240" stroke="#333" stroke-width="1" />
  <path d="M200,250 L220,250" stroke="#333" stroke-width="1" />
</svg>
